<svg id="visual" viewBox="0 0 900 600" width="900" height="600" xmlns="http://www.w3.org/2000/svg" xmlns:xlink="http://www.w3.org/1999/xlink" version="1.1"><rect x="0" y="0" width="900" height="600" fill="#ACA885"></rect><path d="M0 354L21.5 363.7C43 373.3 86 392.7 128.8 399.3C171.7 406 214.3 400 257.2 404C300 408 343 422 385.8 431C428.7 440 471.3 444 514.2 430.2C557 416.3 600 384.7 642.8 379.7C685.7 374.7 728.3 396.3 771.2 404.5C814 412.7 857 407.3 878.5 404.7L900 402L900 601L878.5 601C857 601 814 601 771.2 601C728.3 601 685.7 601 642.8 601C600 601 557 601 514.2 601C471.3 601 428.7 601 385.8 601C343 601 300 601 257.2 601C214.3 601 171.7 601 128.8 601C86 601 43 601 21.5 601L0 601Z" fill="#aca885"></path><path d="M0 452L21.5 453.7C43 455.3 86 458.7 128.8 453C171.7 447.3 214.3 432.7 257.2 423.2C300 413.7 343 409.3 385.8 415.3C428.7 421.3 471.3 437.7 514.2 442C557 446.3 600 438.7 642.8 438.5C685.7 438.3 728.3 445.7 771.2 440.3C814 435 857 417 878.5 408L900 399L900 601L878.5 601C857 601 814 601 771.2 601C728.3 601 685.7 601 642.8 601C600 601 557 601 514.2 601C471.3 601 428.7 601 385.8 601C343 601 300 601 257.2 601C214.3 601 171.7 601 128.8 601C86 601 43 601 21.5 601L0 601Z" fill="#818e71"></path><path d="M0 489L21.5 480.7C43 472.3 86 455.7 128.8 451C171.7 446.3 214.3 453.7 257.2 464.2C300 474.7 343 488.3 385.8 484.5C428.7 480.7 471.3 459.3 514.2 459.2C557 459 600 480 642.8 486.7C685.7 493.3 728.3 485.7 771.2 475.8C814 466 857 454 878.5 448L900 442L900 601L878.5 601C857 601 814 601 771.2 601C728.3 601 685.7 601 642.8 601C600 601 557 601 514.2 601C471.3 601 428.7 601 385.8 601C343 601 300 601 257.2 601C214.3 601 171.7 601 128.8 601C86 601 43 601 21.5 601L0 601Z" fill="#5c7360"></path><path d="M0 538L21.5 535C43 532 86 526 128.8 518C171.7 510 214.3 500 257.2 493.5C300 487 343 484 385.8 490.8C428.7 497.7 471.3 514.3 514.2 522.2C557 530 600 529 642.8 522.8C685.7 516.7 728.3 505.3 771.2 502.7C814 500 857 506 878.5 509L900 512L900 601L878.5 601C857 601 814 601 771.2 601C728.3 601 685.7 601 642.8 601C600 601 557 601 514.2 601C471.3 601 428.7 601 385.8 601C343 601 300 601 257.2 601C214.3 601 171.7 601 128.8 601C86 601 43 601 21.5 601L0 601Z" fill="#3d584f"></path><path d="M0 553L21.5 551.3C43 549.7 86 546.3 128.8 545C171.7 543.7 214.3 544.3 257.2 542.3C300 540.3 343 535.7 385.8 537.5C428.7 539.3 471.3 547.7 514.2 551.5C557 555.3 600 554.7 642.8 556.5C685.7 558.3 728.3 562.7 771.2 562C814 561.3 857 555.7 878.5 552.8L900 550L900 601L878.5 601C857 601 814 601 771.2 601C728.3 601 685.7 601 642.8 601C600 601 557 601 514.2 601C471.3 601 428.7 601 385.8 601C343 601 300 601 257.2 601C214.3 601 171.7 601 128.8 601C86 601 43 601 21.5 601L0 601Z" fill="#243e3d"></path></svg>